<mxfile host="app.diagrams.net" modified="2021-04-15T13:34:31.357Z" agent="5.0 (Windows NT 10.0; Win64; x64) AppleWebKit/537.36 (KHTML, like Gecko) Chrome/90.0.4430.72 Safari/537.36" etag="WP7jMU2pmolxPsbNcGps" version="14.6.0" type="github">
  <diagram id="R2lEEEUBdFMjLlhIrx00" name="Page-1">
    <mxGraphModel dx="2676" dy="1921" grid="1" gridSize="10" guides="1" tooltips="1" connect="1" arrows="1" fold="1" page="1" pageScale="1" pageWidth="850" pageHeight="1100" math="0" shadow="0" extFonts="Permanent Marker^https://fonts.googleapis.com/css?family=Permanent+Marker">
      <root>
        <mxCell id="0" />
        <mxCell id="1" parent="0" />
        <mxCell id="H_j3gsRflJUd25W6t2oF-1" value="PC" style="swimlane;childLayout=stackLayout;horizontal=1;startSize=30;horizontalStack=0;rounded=1;fontSize=14;fontStyle=0;strokeWidth=2;resizeParent=0;resizeLast=1;shadow=0;dashed=0;align=center;" vertex="1" parent="1">
          <mxGeometry x="-20" y="70" width="280" height="290" as="geometry" />
        </mxCell>
        <mxCell id="H_j3gsRflJUd25W6t2oF-2" value="	string NAME&#xa;	string CPU&#xa;	string MB&#xa;	string GPU&#xa;	string RAM &#xa;	string HDD&#xa;	string SSD &#xa;	string PSU  &#xa;	string CASE  &#xa;	string COOLCPU &#xa;	string OTHCOOL &#xa;	int PRICE&#xa;	int KOD&#xa;void fillPC()&#xa;void printPC()&#xa;void toBinFile(FILE *fp)&#xa;void fromBinFile(FILE *fp)* t, int N)" style="align=left;strokeColor=none;fillColor=none;spacingLeft=4;fontSize=12;verticalAlign=top;resizable=0;rotatable=0;part=1;" vertex="1" parent="H_j3gsRflJUd25W6t2oF-1">
          <mxGeometry y="30" width="280" height="260" as="geometry" />
        </mxCell>
        <mxCell id="H_j3gsRflJUd25W6t2oF-3" value="&lt;span style=&quot;text-align: left&quot;&gt;void SortPCUp(PC* t, int N)&lt;/span&gt;" style="rounded=1;arcSize=10;whiteSpace=wrap;html=1;align=center;" vertex="1" parent="1">
          <mxGeometry x="460" y="110" width="160" height="40" as="geometry" />
        </mxCell>
        <mxCell id="H_j3gsRflJUd25W6t2oF-4" value="&lt;span style=&quot;text-align: left&quot;&gt;void FindeByKodPC(PC *t, int N, int Kod)&lt;/span&gt;" style="rounded=1;arcSize=10;whiteSpace=wrap;html=1;align=center;" vertex="1" parent="1">
          <mxGeometry x="422.5" y="310" width="235" height="40" as="geometry" />
        </mxCell>
        <mxCell id="H_j3gsRflJUd25W6t2oF-5" value="&lt;span style=&quot;text-align: left&quot;&gt;void FindeByNamePC(PC *t, int N, char * name)&lt;/span&gt;" style="rounded=1;arcSize=10;whiteSpace=wrap;html=1;align=center;" vertex="1" parent="1">
          <mxGeometry x="400" y="360" width="280" height="40" as="geometry" />
        </mxCell>
        <mxCell id="H_j3gsRflJUd25W6t2oF-6" value="&lt;span style=&quot;text-align: left&quot;&gt;void savePC(PC *t, int N)&lt;/span&gt;" style="rounded=1;arcSize=10;whiteSpace=wrap;html=1;align=center;" vertex="1" parent="1">
          <mxGeometry x="470" y="-40" width="140" height="40" as="geometry" />
        </mxCell>
        <mxCell id="H_j3gsRflJUd25W6t2oF-7" value="&lt;span style=&quot;text-align: left&quot;&gt;void SortPCDown(PC* t, int N)&lt;/span&gt;" style="rounded=1;arcSize=10;whiteSpace=wrap;html=1;align=center;" vertex="1" parent="1">
          <mxGeometry x="455" y="210" width="170" height="40" as="geometry" />
        </mxCell>
        <mxCell id="H_j3gsRflJUd25W6t2oF-8" value="&lt;span style=&quot;text-align: left&quot;&gt;void BuyPC(ArchivePC *u, PC *t, int &amp;amp;N, int Kod, int &amp;amp;SizeArchivePC)&lt;/span&gt;" style="rounded=1;arcSize=10;whiteSpace=wrap;html=1;align=center;" vertex="1" parent="1">
          <mxGeometry x="350" y="405" width="380" height="40" as="geometry" />
        </mxCell>
        <mxCell id="H_j3gsRflJUd25W6t2oF-9" value="&lt;span style=&quot;text-align: left&quot;&gt;PC * upLoadPC(int&amp;amp; N)&lt;/span&gt;" style="rounded=1;arcSize=10;whiteSpace=wrap;html=1;align=center;" vertex="1" parent="1">
          <mxGeometry x="465" y="60" width="150" height="40" as="geometry" />
        </mxCell>
        <mxCell id="H_j3gsRflJUd25W6t2oF-10" value="&lt;span style=&quot;text-align: left&quot;&gt;PC * addPC(PC * t, int&amp;amp; N)&lt;/span&gt;" style="rounded=1;arcSize=10;whiteSpace=wrap;html=1;align=center;" vertex="1" parent="1">
          <mxGeometry x="460" y="160" width="160" height="40" as="geometry" />
        </mxCell>
        <mxCell id="H_j3gsRflJUd25W6t2oF-11" value="&lt;span style=&quot;text-align: left&quot;&gt;PC * delPC(PC * t, int&amp;amp; N, int Kod);&lt;/span&gt;" style="rounded=1;arcSize=10;whiteSpace=wrap;html=1;align=center;" vertex="1" parent="1">
          <mxGeometry x="445" y="260" width="190" height="40" as="geometry" />
        </mxCell>
        <mxCell id="H_j3gsRflJUd25W6t2oF-12" value="PCcomp" style="swimlane;childLayout=stackLayout;horizontal=1;startSize=30;horizontalStack=0;rounded=1;fontSize=14;fontStyle=0;strokeWidth=2;resizeParent=0;resizeLast=1;shadow=0;dashed=0;align=center;" vertex="1" parent="1">
          <mxGeometry x="-20" y="650" width="280" height="170" as="geometry" />
        </mxCell>
        <mxCell id="H_j3gsRflJUd25W6t2oF-13" value="	string NAME&#xa;	string CLASS&#xa;	string SPECIFIC&#xa;	int PRICE&#xa;	int KOD&#xa;void fillPCcomp()&#xa;void printPCcomp()&#xa;void toBinFile(FILE *fp)&#xa;void fromBinFile(FILE *fp)void printPC(PC* t, int N)" style="align=left;strokeColor=none;fillColor=none;spacingLeft=4;fontSize=12;verticalAlign=top;resizable=0;rotatable=0;part=1;" vertex="1" parent="H_j3gsRflJUd25W6t2oF-12">
          <mxGeometry y="30" width="280" height="140" as="geometry" />
        </mxCell>
        <mxCell id="H_j3gsRflJUd25W6t2oF-14" value="&lt;span style=&quot;text-align: left&quot;&gt;void SortPC&lt;/span&gt;&lt;span style=&quot;font-size: 14px&quot;&gt;comp&amp;nbsp;&lt;/span&gt;&lt;span style=&quot;text-align: left&quot;&gt;Up(PC&lt;/span&gt;&lt;span style=&quot;font-size: 14px&quot;&gt;comp&lt;/span&gt;&lt;span style=&quot;text-align: left&quot;&gt;* t, int N)&lt;/span&gt;" style="rounded=1;arcSize=10;whiteSpace=wrap;html=1;align=center;" vertex="1" parent="1">
          <mxGeometry x="425" y="560" width="232.5" height="40" as="geometry" />
        </mxCell>
        <mxCell id="H_j3gsRflJUd25W6t2oF-15" value="&lt;span style=&quot;text-align: left&quot;&gt;void FindeByKodPC&lt;/span&gt;&lt;span style=&quot;font-size: 14px&quot;&gt;comp&lt;/span&gt;&lt;span style=&quot;text-align: left&quot;&gt;(PC&lt;/span&gt;&lt;span style=&quot;font-size: 14px&quot;&gt;comp&lt;/span&gt;&lt;span style=&quot;text-align: left&quot;&gt;&amp;nbsp;*t, int N, int Kod)&lt;/span&gt;" style="rounded=1;arcSize=10;whiteSpace=wrap;html=1;align=center;" vertex="1" parent="1">
          <mxGeometry x="397.5" y="810" width="307.5" height="40" as="geometry" />
        </mxCell>
        <mxCell id="H_j3gsRflJUd25W6t2oF-16" value="&lt;span style=&quot;text-align: left&quot;&gt;void FindeByNamePC&lt;/span&gt;&lt;span style=&quot;font-size: 14px&quot;&gt;comp&lt;/span&gt;&lt;span style=&quot;text-align: left&quot;&gt;(PC&lt;/span&gt;&lt;span style=&quot;font-size: 14px&quot;&gt;comp&lt;/span&gt;&lt;span style=&quot;text-align: left&quot;&gt;&amp;nbsp;*t, int N, char * name)&lt;/span&gt;" style="rounded=1;arcSize=10;whiteSpace=wrap;html=1;align=center;" vertex="1" parent="1">
          <mxGeometry x="385" y="910" width="340" height="40" as="geometry" />
        </mxCell>
        <mxCell id="H_j3gsRflJUd25W6t2oF-17" value="&lt;span style=&quot;text-align: left&quot;&gt;void savePC&lt;/span&gt;&lt;span style=&quot;font-size: 14px&quot;&gt;comp&amp;nbsp;&lt;/span&gt;&lt;span style=&quot;text-align: left&quot;&gt;(PC *t, int N)&lt;/span&gt;" style="rounded=1;arcSize=10;whiteSpace=wrap;html=1;align=center;" vertex="1" parent="1">
          <mxGeometry x="447.5" y="460" width="190" height="40" as="geometry" />
        </mxCell>
        <mxCell id="H_j3gsRflJUd25W6t2oF-18" value="&lt;span style=&quot;text-align: left&quot;&gt;void SortPC&lt;/span&gt;&lt;span style=&quot;font-size: 14px&quot;&gt;comp&lt;/span&gt;&lt;span style=&quot;text-align: left&quot;&gt;Down(PC&lt;/span&gt;&lt;span style=&quot;font-size: 14px&quot;&gt;comp&lt;/span&gt;&lt;span style=&quot;text-align: left&quot;&gt;* t, int N)&lt;/span&gt;" style="rounded=1;arcSize=10;whiteSpace=wrap;html=1;align=center;" vertex="1" parent="1">
          <mxGeometry x="425" y="610" width="235" height="40" as="geometry" />
        </mxCell>
        <mxCell id="H_j3gsRflJUd25W6t2oF-19" value="&lt;span style=&quot;text-align: left&quot;&gt;void BuyPC&lt;/span&gt;&lt;span style=&quot;font-size: 14px&quot;&gt;comp&lt;/span&gt;&lt;span style=&quot;text-align: left&quot;&gt;(ArchivePC&lt;/span&gt;&lt;span style=&quot;font-size: 14px&quot;&gt;comp&lt;/span&gt;&lt;span style=&quot;text-align: left&quot;&gt;&amp;nbsp;*u, PC&lt;/span&gt;&lt;span style=&quot;font-size: 14px&quot;&gt;comp&lt;/span&gt;&lt;span style=&quot;text-align: left&quot;&gt;&amp;nbsp;*t, int &amp;amp;N, int Kod, int &amp;amp;SizeArchivePC&lt;/span&gt;&lt;span style=&quot;font-size: 14px&quot;&gt;comp&lt;/span&gt;&lt;span style=&quot;text-align: left&quot;&gt;)&lt;/span&gt;" style="rounded=1;arcSize=10;whiteSpace=wrap;html=1;align=center;" vertex="1" parent="1">
          <mxGeometry x="310" y="960" width="510" height="40" as="geometry" />
        </mxCell>
        <mxCell id="H_j3gsRflJUd25W6t2oF-20" value="&lt;span style=&quot;text-align: left&quot;&gt;PC&lt;/span&gt;&lt;span style=&quot;font-size: 14px&quot;&gt;comp&lt;/span&gt;&lt;span style=&quot;text-align: left&quot;&gt;* upLoadPC&lt;/span&gt;&lt;span style=&quot;font-size: 14px&quot;&gt;comp&amp;nbsp;&lt;/span&gt;&lt;span style=&quot;text-align: left&quot;&gt;(int&amp;amp; N)&lt;/span&gt;" style="rounded=1;arcSize=10;whiteSpace=wrap;html=1;align=center;" vertex="1" parent="1">
          <mxGeometry x="437.5" y="510" width="215" height="40" as="geometry" />
        </mxCell>
        <mxCell id="H_j3gsRflJUd25W6t2oF-21" value="&lt;span style=&quot;text-align: left&quot;&gt;PC&lt;/span&gt;&lt;span style=&quot;font-size: 14px&quot;&gt;comp&lt;/span&gt;&lt;span style=&quot;text-align: left&quot;&gt;&amp;nbsp;* addPC&lt;/span&gt;&lt;span style=&quot;font-size: 14px&quot;&gt;comp&amp;nbsp;&lt;/span&gt;&lt;span style=&quot;text-align: left&quot;&gt;(PC&lt;/span&gt;&lt;span style=&quot;font-size: 14px&quot;&gt;comp&lt;/span&gt;&lt;span style=&quot;text-align: left&quot;&gt;&amp;nbsp;* t, int&amp;amp; N)&lt;/span&gt;" style="rounded=1;arcSize=10;whiteSpace=wrap;html=1;align=center;" vertex="1" parent="1">
          <mxGeometry x="420" y="710" width="260" height="40" as="geometry" />
        </mxCell>
        <mxCell id="H_j3gsRflJUd25W6t2oF-22" value="&lt;span style=&quot;text-align: left&quot;&gt;PC&lt;/span&gt;&lt;span style=&quot;font-size: 14px&quot;&gt;comp&lt;/span&gt;&lt;span style=&quot;text-align: left&quot;&gt;&amp;nbsp;* delPC&lt;/span&gt;&lt;span style=&quot;font-size: 14px&quot;&gt;comp&lt;/span&gt;&lt;span style=&quot;text-align: left&quot;&gt;(PC&lt;/span&gt;&lt;span style=&quot;font-size: 14px&quot;&gt;comp&lt;/span&gt;&lt;span style=&quot;text-align: left&quot;&gt;&amp;nbsp;* t, int&amp;amp; N, int Kod);&lt;/span&gt;" style="rounded=1;arcSize=10;whiteSpace=wrap;html=1;align=center;" vertex="1" parent="1">
          <mxGeometry x="403.75" y="760" width="295" height="40" as="geometry" />
        </mxCell>
        <mxCell id="H_j3gsRflJUd25W6t2oF-23" value="void FindeByTypePCcomp(PCcomp *t, int N, char * type);&lt;span&gt;						&lt;/span&gt;" style="rounded=1;arcSize=10;whiteSpace=wrap;html=1;align=center;" vertex="1" parent="1">
          <mxGeometry x="392.5" y="860" width="320" height="40" as="geometry" />
        </mxCell>
        <mxCell id="H_j3gsRflJUd25W6t2oF-24" value="ArchivePC" style="swimlane;childLayout=stackLayout;horizontal=1;startSize=30;horizontalStack=0;rounded=1;fontSize=14;fontStyle=0;strokeWidth=2;resizeParent=0;resizeLast=1;shadow=0;dashed=0;align=center;" vertex="1" parent="1">
          <mxGeometry x="-510" y="60" width="280" height="290" as="geometry" />
        </mxCell>
        <mxCell id="H_j3gsRflJUd25W6t2oF-25" value="	string NAME&#xa;	string Name&#xa;	string LastName&#xa;	string Otch&#xa;	string Telephone&#xa;	string Adress&#xa;	int PRICE&#xa;	int KOD&#xa;void ListPC()&#xa;void PrintPC()&#xa;void toBinFilePC(FILE *fp)&#xa;void fromBinFilePC(FILE *fp)" style="align=left;strokeColor=none;fillColor=none;spacingLeft=4;fontSize=12;verticalAlign=top;resizable=0;rotatable=0;part=1;" vertex="1" parent="H_j3gsRflJUd25W6t2oF-24">
          <mxGeometry y="30" width="280" height="260" as="geometry" />
        </mxCell>
        <mxCell id="H_j3gsRflJUd25W6t2oF-26" value="&lt;div style=&quot;text-align: left&quot;&gt;&lt;span&gt;void printPC(PC* t, int N)&lt;/span&gt;&lt;/div&gt;" style="rounded=1;arcSize=10;whiteSpace=wrap;html=1;align=center;" vertex="1" parent="1">
          <mxGeometry x="465" y="10" width="150" height="40" as="geometry" />
        </mxCell>
        <mxCell id="H_j3gsRflJUd25W6t2oF-27" value="&lt;div style=&quot;text-align: left&quot;&gt;&lt;/div&gt;&lt;span style=&quot;font-size: 14px&quot;&gt;void printPCcomp(PCcomp * t, int N);&lt;span&gt;	&lt;/span&gt;&lt;/span&gt;" style="rounded=1;arcSize=10;whiteSpace=wrap;html=1;align=center;" vertex="1" parent="1">
          <mxGeometry x="425" y="660" width="240" height="40" as="geometry" />
        </mxCell>
      </root>
    </mxGraphModel>
  </diagram>
</mxfile>
